<?xml version="1.0" encoding="UTF-8"?>
<svg xmlns="http://www.w3.org/2000/svg" viewBox="0 0 512 512">
  <defs>
    <style>
      .cls-2 {
        fill: #b1afff;
      }

      .cls-3 {
        fill: #31637d;
      }

      .cls-6 {
        fill: #163549;
      }

      .cls-7 {
        fill: #fdfdfd;
      }

      .cls-8 {
        fill: #deddff;
      }

      .cls-9 {
        fill: #deddff;
      }

      .cls-10 {
        fill: #8381f1;
      }
    </style>
  </defs>
  <path class="cls-7" d="m25.63,189.17c-.13-13.99.4-27.94,4.44-41.45,5.62-18.81,16.92-33.76,32.43-45.51,13.35-10.11,28.65-17,43.19-25.14,35.66-19.97,71.43-39.73,107.26-59.39,29.02-15.92,58.54-16.79,87.77-.91,46.2,25.09,92.22,50.51,138.15,76.09,20.49,11.41,35.8,27.79,44.4,49.93,4.75,12.22,5.78,25.04,5.95,37.99.04,2.96.17,5.91.25,8.87-1.39.44-1-.67-1.2-1.33-3.06-9.91-8.61-17.98-18.07-22.64-12.15-5.99-24.62-5.31-36.51.45-19.94,9.66-38.92,21.17-58.36,31.78-22.88,12.48-45.56,25.32-68.38,37.91-11.76,6.49-22.56,14-30.43,25.23-8.82,12.58-13.84,26.56-16.13,41.64-1.19.24-1.19,2.17-2.94,1.95-.37-1.39-.9-2.77-1.09-4.2-1.15-8.49-4.14-16.44-7.58-24.18-2.49-5.6-5.81-10.81-9.69-15.58-7.21-8.85-15.17-16.9-25.29-22.49-14.87-8.23-29.57-16.8-44.7-24.54-10.53-5.39-20.29-12.06-30.87-17.3-6.11-3.03-12.23-6.07-18.18-9.4-13.08-7.31-26.06-14.81-39.51-21.46-8.66-4.28-17.8-4.85-26.98-2.99-12.14,2.47-20.45,9.89-24.95,21.47-.74,1.9-1.7,3.65-3,5.21Zm232.16-40.25c5.4.17,11.32-.45,16.74-3,9.59-4.5,16.52-11.68,16.92-22.66.36-9.76-5.41-16.89-13.86-21.05-14.34-7.06-29.07-6.56-42.89,1.17-14.19,7.94-15.7,25.99-3.61,36.88,7.37,6.64,16.47,8.62,26.7,8.65Z"/>
  <path class="cls-8" d="m25.63,189.17c1.31-1.56,2.27-3.32,3-5.21,4.5-11.58,12.81-19,24.95-21.47,9.18-1.87,18.32-1.29,26.98,2.99,13.45,6.65,26.42,14.14,39.51,21.46,5.95,3.33,12.06,6.38,18.18,9.4,10.59,5.24,20.34,11.91,30.87,17.3,15.12,7.74,29.82,16.31,44.7,24.54,10.12,5.6,18.08,13.64,25.29,22.49,3.88,4.77,7.21,9.98,9.69,15.58,3.44,7.74,6.42,15.68,7.58,24.18.19,1.43.72,2.82,1.09,4.2,1.74.22,1.74-1.71,2.94-1.95-.22,4.82-.62,9.63-.63,14.45-.06,31.45-.02,62.89-.05,94.34,0,8.49.41,17.02-1.41,25.42-.24,7.29-1.83,14.34-4.37,21.12-5.59,14.95-14.86,26.22-31.22,30.04-8.6,2.01-17.02.95-25.36-1.51-4.08-2-8.25-3.86-12.24-6.04-24.17-13.19-48.45-26.17-72.39-39.77-18.05-10.25-37.49-18.28-53.26-32.31-3.22-3.57-6.44-7.14-9.66-10.7-2.52-4.11-6.38-7.28-8.29-11.82-.43-.96-.5-2.18-1.77-2.57-2.27-6.61-5.64-12.75-7.88-19.39-5.28-15.67-5.79-31.8-5.69-48.13.22-36.85.04-73.71-.04-110.56-.01-5.36-.34-10.73-.52-16.09Zm140.21,211.11c-1.96,19.82,16.89,39.61,29.73,43.52,14.06,4.28,24.46-3.66,24.58-18.22.08-9.64-3.57-18.06-8.68-25.92-6.05-9.3-14.17-16.13-25.08-18.95-7.83-2.03-15.22,1.9-18.45,9.3-1.52,3.49-2.1,7.18-2.1,10.27ZM57.86,230.3c0,12.56,5.99,21.98,13.5,30.62,4.87,5.61,10.49,10.36,17.94,12.34,9.83,2.61,17.99-.86,21.41-9.27,2.02-4.98,2.48-10.18,1.22-15.41-4.08-17-13.09-30.3-29.68-37.13-11.65-4.8-21.69,1.31-23.75,13.74-.31,1.85-.47,3.71-.65,5.11Z"/>
  <path class="cls-2" d="m258.32,436.88c1.82-8.4,1.4-16.92,1.41-25.42.03-31.45,0-62.89.05-94.34,0-4.82.41-9.63.63-14.45,2.28-15.08,7.3-29.06,16.13-41.64,7.87-11.22,18.67-18.74,30.43-25.23,22.82-12.59,45.5-25.43,68.38-37.91,19.45-10.61,38.42-22.12,58.36-31.78,11.89-5.76,24.36-6.45,36.51-.45,9.45,4.66,15,12.74,18.07,22.64.2.66-.18,1.77,1.2,1.33-.04,8.58-.13,17.15-.12,25.73.01,18.96.04,37.91.12,56.87.09,22.32.38,44.64-.36,66.96-.38,11.3-4.14,21.81-8.32,32.16-1.21,2.98-2.41,5.97-3.61,8.96-.97.07-1.53.65-1.85,1.51-.06.25-.09.51-.08.78l.02-.02c-2.88,3.46-5.15,7.32-7.35,11.23-4.55,5.11-9.1,10.22-13.65,15.33-9.51,8.43-20.47,14.62-31.55,20.68-20.84,11.4-41.58,22.97-62.38,34.43-13.6,7.49-27.25,14.91-40.88,22.36-.52.12-1.06.2-1.57.35-25.03,7.5-48.52-5.35-55.44-30.56-1.76-6.4-2.77-13.01-4.12-19.53Zm91.73-34.62c0-1.21.09-2.43-.01-3.63-1.12-13.55-10.09-20.58-22.2-17.6-16.24,4-34.78,27.43-30.68,49.74,2,10.89,9.89,15.48,20.84,13.38,10.35-1.99,16.83-9.13,22.91-16.69,5.84-7.28,9.22-15.67,9.15-25.19Zm54.39-82.89c-.07-1.61-.1-3.23-.23-4.84-.74-9.07-7.18-15.92-15.74-16.55-4.41-.32-8.64.82-12.31,3.16-15.46,9.86-24.98,23.43-25.17,42.33-.14,13.71,10.31,21.23,23.57,17.88,14.14-3.57,31.24-25.33,29.88-41.99Zm52.99-86.47c-.19-1.87-.41-3.74-.55-5.61-.98-13-9.81-19.55-22.43-16.46-2.18.53-4.38,1.46-6.27,2.67-16.05,10.23-24.62,24.78-24.37,43.95.14,11.38,8.82,18.03,20.1,16.33,8.67-1.3,15-6.24,20.58-12.46,7.26-8.11,12.01-17.4,12.95-28.43Z"/>
  <path class="cls-10" d="m257.79,148.92c-10.23-.04-19.33-2.01-26.7-8.65-12.09-10.88-10.58-28.93,3.61-36.88,13.82-7.74,28.55-8.23,42.89-1.17,8.45,4.16,14.22,11.29,13.86,21.05-.4,10.97-7.33,18.15-16.92,22.66-5.42,2.54-11.34,3.17-16.74,3Z"/>
  <path class="cls-6" d="m165.84,400.28c0-3.09.57-6.78,2.1-10.27,3.23-7.4,10.62-11.33,18.45-9.3,10.91,2.82,19.03,9.65,25.08,18.95,5.11,7.86,8.77,16.28,8.68,25.92-.13,14.57-10.53,22.5-24.58,18.22-12.83-3.91-31.69-23.7-29.73-43.52Z"/>
  <path class="cls-6" d="m57.86,230.3c.17-1.4.34-3.26.65-5.11,2.06-12.43,12.1-18.53,23.75-13.74,16.59,6.83,25.6,20.13,29.68,37.13,1.25,5.23.8,10.43-1.22,15.41-3.42,8.41-11.57,11.88-21.41,9.27-7.45-1.98-13.07-6.73-17.94-12.34-7.51-8.64-13.5-18.06-13.5-30.62Z"/>
  <path class="cls-9" d="m258.32,436.88c1.35,6.52,2.36,13.13,4.12,19.53,6.92,25.21,30.41,38.06,55.44,30.56.51-.15,1.05-.24,1.57-.35-.3.57-.59,1.14-.89,1.71-1.39.14-2.44.97-3.59,1.65-4.35,2.58-8.63,5.27-13.24,7.43-7.36,3.45-15.14,5.76-22.71,8.65-1.74.12-3.51.06-5.21.4-11.86,2.37-23.67,1.44-35.36-.86-11.81-2.32-22.72-7.21-33.01-13.35-2.8-1.67-6.17-2.71-8.07-5.72,8.34,2.46,16.76,3.52,25.36,1.51,16.36-3.83,25.63-15.1,31.22-30.04,2.54-6.78,4.13-13.83,4.37-21.12Z"/>
  <path class="cls-6" d="m350.05,402.27c.07,9.52-3.31,17.92-9.15,25.19-6.07,7.57-12.56,14.7-22.91,16.69-10.96,2.11-18.84-2.48-20.84-13.38-4.1-22.31,14.44-45.74,30.68-49.74,12.11-2.98,21.09,4.05,22.2,17.6.1,1.2.01,2.42.01,3.63Z"/>
  <path class="cls-6" d="m404.43,319.37c1.36,16.66-15.74,38.42-29.88,41.99-13.26,3.35-23.71-4.17-23.57-17.88.19-18.9,9.71-32.47,25.17-42.33,3.68-2.34,7.9-3.48,12.31-3.16,8.56.63,15.01,7.48,15.74,16.55.13,1.61.15,3.22.22,4.84Z"/>
  <path class="cls-6" d="m457.43,232.9c-.94,11.03-5.68,20.32-12.95,28.43-5.57,6.22-11.91,11.16-20.58,12.46-11.28,1.69-19.95-4.95-20.1-16.33-.24-19.18,8.32-33.73,24.37-43.95,1.89-1.21,4.09-2.13,6.27-2.67,12.62-3.09,21.45,3.46,22.43,16.46.14,1.87.37,3.74.55,5.61Z"/>
  <path class="cls-3" d="m345.28,480.33c.27-.56.54-.55.81,0-.27,0-.54,0-.81,0Z"/>
</svg>
